<mxfile host="app.diagrams.net" modified="2024-02-26T07:18:34.934Z" agent="Mozilla/5.0 (Windows NT 10.0; Win64; x64) AppleWebKit/537.36 (KHTML, like Gecko) Chrome/119.0.0.0 Safari/537.36" version="23.1.6" etag="jTWJlA5VDzjmfFwgBrhA" type="github">
  <diagram name="第 1 页" id="LcFfP4WHZknCO7OTZUt_">
    <mxGraphModel>
      <root>
        <mxCell id="0" />
        <mxCell id="1" parent="0" />
      </root>
    </mxGraphModel>
  </diagram>
</mxfile>
